PathFileType	4	(X/Y/Z)	/Users/gattia/Dropbox/phd_data/bike_study/processing_scripts/../mocap_collections/p017/static_002_dig-bike_study_lower_sept.17.2019_static_func_knee_and_ankle/marker_data.trc
DataRate	CameraRate	NumFrames	NumMarkers	Units	OrigDataRate	OrigDataStartFrame	OrigNumFrames
112.5	112.5	4	107	mm	112.5	128	339
Frame#	Time	Head_Front			Head_R			Head_L			Head_back			Head_top			Arm_R_1			Arm_R_2			Arm_R_3			Arm_R_4			Elbow_R_Lat			Elbow_R_Med			Forearm_R_1			Forearm_R_2			Forearm_R_3			Forearm_R_4			Rad_styl_R			Ul_styl_R			Dig_R_1			Dig_R_3			Dig_R_5			Arm_L_1			Arm_L_2			Arm_L_3			Arm_L_4			Elbow_L_Lat			Elbow_L_Med			Forearm_L_1			Forearm_L_2			Forearm_L_3			Forearm_L_4			Rad_styl_L			Ul_styl_L			Dig_L_1			Dig_L_3			Dig_L_5			xiphoid			sternal_notch			Acr_R			Acr_L			C7			T8			ASIS_R			ASIS_L			PSIS_R			PSIS_L			GT_R			Thigh_R_1			Thigh_R_2			Thigh_R_3			Thigh_R_4			Knee_R_L_Cond			Knee_R_M_Cond			GT_L			Thigh_L_1			Thigh_L_2			Thigh_L_3			Thigh_L_4			Knee_L_L_Cond			Knee_L_M_Cond			Tib_Tib_R			Shank_R_1			Shank_R_2			Shank_R_3			Shank_R_4			Ankle_R_L_Mal			Ankle_R_M_Mal			Tib_Tub_L			Shank_L_1			Shank_L_2			Shank_L_3			Shank_L_4			Ankle_L_L_Mal			Ankle_L_M_Mal			Foot_R_MH_1_Top			Foot_R_MH_5_Top			Foot_R_Calc			Foot_R_Center			Foot_L_MH_1_Top			Foot_L_MH_5_Top			Foot_L_Calc			Foot_L_Center			right_hjc			left_hjc			mid_hjc			mid_pelvis			mid_asis			mid_psis			right_kjc			left_kjc			right_ajc			left_ajc			right_met_1_floor			left_met_1_floor			right_met_5_floor			left_met_5_floor			right_calc_floor			left_calc_floor			right_mid_met_floor			left_mid_met_floor			right_ajc_floor			left_ajc_floor			right_sjc			left_sjc			right_ejc			left_ejc			right_wjc			left_wjc			
		X1	Y1	Z1	X2	Y2	Z2	X3	Y3	Z3	X4	Y4	Z4	X5	Y5	Z5	X6	Y6	Z6	X7	Y7	Z7	X8	Y8	Z8	X9	Y9	Z9	X10	Y10	Z10	X11	Y11	Z11	X12	Y12	Z12	X13	Y13	Z13	X14	Y14	Z14	X15	Y15	Z15	X16	Y16	Z16	X17	Y17	Z17	X18	Y18	Z18	X19	Y19	Z19	X20	Y20	Z20	X21	Y21	Z21	X22	Y22	Z22	X23	Y23	Z23	X24	Y24	Z24	X25	Y25	Z25	X26	Y26	Z26	X27	Y27	Z27	X28	Y28	Z28	X29	Y29	Z29	X30	Y30	Z30	X31	Y31	Z31	X32	Y32	Z32	X33	Y33	Z33	X34	Y34	Z34	X35	Y35	Z35	X36	Y36	Z36	X37	Y37	Z37	X38	Y38	Z38	X39	Y39	Z39	X40	Y40	Z40	X41	Y41	Z41	X42	Y42	Z42	X43	Y43	Z43	X44	Y44	Z44	X45	Y45	Z45	X46	Y46	Z46	X47	Y47	Z47	X48	Y48	Z48	X49	Y49	Z49	X50	Y50	Z50	X51	Y51	Z51	X52	Y52	Z52	X53	Y53	Z53	X54	Y54	Z54	X55	Y55	Z55	X56	Y56	Z56	X57	Y57	Z57	X58	Y58	Z58	X59	Y59	Z59	X60	Y60	Z60	X61	Y61	Z61	X62	Y62	Z62	X63	Y63	Z63	X64	Y64	Z64	X65	Y65	Z65	X66	Y66	Z66	X67	Y67	Z67	X68	Y68	Z68	X69	Y69	Z69	X70	Y70	Z70	X71	Y71	Z71	X72	Y72	Z72	X73	Y73	Z73	X74	Y74	Z74	X75	Y75	Z75	X76	Y76	Z76	X77	Y77	Z77	X78	Y78	Z78	X79	Y79	Z79	X80	Y80	Z80	X81	Y81	Z81	X82	Y82	Z82	X83	Y83	Z83	X84	Y84	Z84	X85	Y85	Z85	X86	Y86	Z86	X87	Y87	Z87	X88	Y88	Z88	X89	Y89	Z89	X90	Y90	Z90	X91	Y91	Z91	X92	Y92	Z92	X93	Y93	Z93	X94	Y94	Z94	X95	Y95	Z95	X96	Y96	Z96	X97	Y97	Z97	X98	Y98	Z98	X99	Y99	Z99	X100	Y100	Z100	X101	Y101	Z101	X102	Y102	Z102	X103	Y103	Z103	X104	Y104	Z104	X105	Y105	Z105	X106	Y106	Z106	X107	Y107	Z107	

128	  1.128889	344.699394	1788.235168	320.881776	156.137182	1756.106657	375.272562	239.241259	1756.287518	181.401241	105.044673	1693.711921	267.868408	216.918730	1857.546756	287.830442	108.317045	1327.244107	513.147866	115.202171	1349.919753	547.892918	114.178230	1326.594965	563.453479	107.165989	1302.993092	528.489375	106.293449	1236.529775	596.660387	179.686887	1210.224803	562.532649	107.791182	1139.025411	697.913883	143.856895	1114.619614	675.725853	148.284149	1100.382076	699.357268	111.984945	1124.072280	720.513024	163.504812	1126.065982	823.725479	129.715884	1063.505348	790.745816	178.363396	1124.991193	888.848776	114.930698	1058.325159	888.756170	124.479385	1022.948277	858.597761	186.306756	1339.856688	-36.903469	149.310198	1334.174599	-18.000168	146.944534	1309.903878	-30.929821	183.377923	1315.124051	-50.685378	141.147317	1228.780861	-59.755101	190.898826	1196.440439	 -6.484261	156.760287	1170.326897	-171.644929	167.319160	1129.653878	-146.441436	175.636229	1117.002311	-170.092641	165.280297	1157.579324	-195.038133	237.093338	1147.421454	-287.974149	205.963960	1080.103623	-259.741306	285.359539	1138.702443	-351.425465	219.423162	1077.769084	-375.341436	223.268913	1037.130034	-348.688953	314.669051	1295.035275	277.879271	275.116074	1490.936325	279.726674	158.613873	1533.843440	444.149312	197.278653	1527.721065	 77.973097	137.886597	1554.402994	275.985312	 93.384630	1362.596511	272.725940	278.178992	1032.521334	415.977787	291.491080	1024.901931	145.521362	 98.733066	1066.709870	323.254342	102.923986	1072.243143	203.056636	204.931698	950.602247	464.443940	185.248036	779.223593	470.615474	227.934245	776.478215	475.433065	225.906472	746.088165	474.905720	183.168224	747.563642	470.798285	193.741978	521.980173	440.170302	229.850593	496.059126	349.514208	206.991437	923.302010	 89.098195	239.808939	784.018192	 84.415738	197.473593	779.821443	 86.085453	200.490451	748.680630	 85.717905	243.027265	752.573792	 83.856133	220.860949	512.087736	128.378207	240.001146	493.579787	224.739596	223.723388	447.682946	402.127631	105.317556	422.751376	441.915129	144.768922	413.459093	457.410697	137.217667	383.842496	458.566578	 97.457389	393.257239	443.439296	109.224634	126.654404	427.049873	146.595263	131.582692	347.408620	238.138705	441.949719	175.955665	157.135554	423.638656	110.718688	117.196518	430.639735	127.361988	110.978917	401.265907	125.898988	149.835034	394.266270	108.239028	116.695115	121.347991	143.961242	156.269502	124.374109	218.415946	276.127387	 57.411734	391.324365	215.734322	 51.439026	488.350301	 62.233233	 68.763788	357.664366	155.893207	 61.168371	460.658850	301.607531	 52.665091	164.170109	242.084896	 49.940003	 63.164037	 81.253132	 64.663207	209.137067	169.062816	 64.108517	 99.337629	218.582043	961.756808	367.146148	227.368739	956.727591	188.630331	222.975391	959.242200	277.888240	192.831781	1049.094069	271.952532	284.835036	1028.711633	280.749574	100.828526	1069.476506	263.155489	201.201893	510.326222	394.842255	208.363425	492.728795	176.558901	127.909949	129.118548	387.229247	136.482308	122.861050	181.188594	276.127387	  0.000000	391.324365	301.607531	  0.000000	164.170109	215.734322	  0.000000	488.350301	242.084896	  0.000000	 63.164037	 62.233233	  0.000000	357.664366	 81.253132	  0.000000	209.137067	245.930854	  0.000000	439.837333	271.846214	  0.000000	113.667073	127.909949	  0.000000	387.229247	136.482308	  0.000000	181.188594	158.613873	1464.843440	444.149312	197.278653	1458.721065	 77.973097	142.990168	1223.377289	579.596518	166.023072	1212.610650	-33.119681	146.610348	1094.785665	807.235648	221.528649	1113.762538	-273.857728
129	  1.137778	344.756672	1788.209718	320.891562	156.186819	1756.114356	375.276744	239.295278	1756.290815	181.407108	105.084468	1693.735005	267.867473	216.989315	1857.547258	287.841959	108.330969	1327.255891	513.153477	115.218270	1349.932735	547.898090	114.193032	1326.608721	563.459209	107.179979	1303.005468	528.495800	106.308633	1236.544757	596.671772	179.700457	1210.236642	562.543100	107.813107	1139.051509	697.936816	143.915764	1114.654717	675.794596	148.306594	1100.409874	699.381473	112.007878	1124.101736	720.538011	163.534948	1126.108737	823.747465	129.743947	1063.543443	790.777253	178.397502	1125.042780	888.871943	114.967878	1058.375678	888.790149	124.512928	1022.993337	858.634482	186.294109	1339.846343	-36.899344	149.297689	1334.165479	-17.993782	146.930659	1309.895128	-30.923701	183.363591	1315.113714	-50.680740	141.128573	1228.771282	-59.746377	190.882556	1196.430990	 -6.477485	156.732356	1170.316838	-171.635272	167.292697	1129.643278	-146.432719	175.606490	1116.990134	-170.083947	165.250778	1157.570187	-195.028487	237.055654	1147.406055	-287.969455	205.926436	1080.089490	-259.734826	285.319127	1138.685068	-351.423537	219.378190	1077.753195	-375.336759	223.220560	1037.101776	-348.686954	314.665526	1295.024020	277.876620	275.120762	1490.926127	279.720991	158.612484	1533.870390	444.142400	197.282294	1527.713387	 77.970307	137.905485	1554.410112	275.984226	 93.387480	1362.604772	272.732235	278.169392	1032.521950	415.981170	291.479363	1024.903101	145.523122	 98.722428	1066.711204	323.261339	102.910041	1072.244745	203.063402	204.924368	950.602649	464.448418	185.243949	779.223688	470.619566	227.929978	776.478727	475.436123	225.903185	746.089037	474.908212	183.164254	747.563677	470.802502	193.739557	521.981120	440.173307	229.848725	496.061041	349.516250	206.980050	923.292584	 89.100509	239.795438	784.021288	 84.417981	197.459585	779.823744	 86.089388	200.477362	748.682748	 85.721588	243.014369	752.576844	 83.857558	220.859377	512.090079	128.379324	239.998153	493.581865	224.740758	223.720923	447.684291	402.129791	105.315796	422.750308	441.916847	144.766782	413.458553	457.412539	137.216151	383.841720	458.568537	 97.455754	393.256201	443.441218	109.224011	126.654279	427.051478	146.595345	131.583405	347.409603	238.137223	441.952149	175.958116	157.135479	423.640114	110.719469	117.196122	430.641538	127.362216	110.984020	401.264406	125.906030	149.834698	394.268128	108.239562	116.695744	121.349354	143.960440	156.269344	124.374474	218.416212	276.128092	 57.412778	391.324420	215.733712	 51.438946	488.350872	 62.233353	 68.764215	357.664443	155.892498	 61.168126	460.659854	301.608331	 52.665536	164.170962	242.085457	 49.940311	 63.164102	 81.252522	 64.660886	209.136755	169.063685	 64.108792	 99.337681	218.571530	961.757182	367.150263	227.356828	956.728331	188.633375	222.964179	959.242756	277.891819	192.820306	1049.095250	271.957258	284.824377	1028.712525	280.752146	100.816234	1069.477974	263.162370	201.199732	510.327239	394.844778	208.362115	492.724941	176.560041	127.909678	129.118842	387.230541	136.482544	122.861914	181.188326	276.128092	  0.000000	391.324420	301.608331	  0.000000	164.170962	215.733712	  0.000000	488.350872	242.085457	  0.000000	 63.164102	 62.233353	  0.000000	357.664443	 81.252522	  0.000000	209.136755	245.930902	  0.000000	439.837646	271.846894	  0.000000	113.667532	127.909678	  0.000000	387.230541	136.482544	  0.000000	181.188326	158.612484	1464.870390	444.142400	197.282294	1458.713387	 77.970307	143.004545	1223.390699	579.607436	166.005564	1212.601136	-33.111931	146.639448	1094.826090	807.262359	221.491045	1113.747773	-273.852140
130	  1.146667	344.817440	1788.181502	320.902065	156.237899	1756.124889	375.277438	239.355402	1756.292793	181.411113	105.126262	1693.761450	267.862460	217.065889	1857.548219	287.850624	108.344422	1327.268710	513.159519	115.234189	1349.946615	547.903748	114.207841	1326.623431	563.465241	107.193736	1303.018835	528.502633	106.324401	1236.560402	596.682499	179.715151	1210.249951	562.553473	107.835565	1139.077256	697.958245	143.979985	1114.691340	675.866583	148.330153	1100.437776	699.403975	112.030970	1124.130505	720.560875	163.563545	1126.150327	823.767949	129.772841	1063.579616	790.806119	178.428739	1125.093229	888.892795	115.003343	1058.423012	888.820565	124.547041	1023.035770	858.667602	186.281321	1339.835006	-36.894579	149.284933	1334.155323	-17.986571	146.916725	1309.885380	-30.917101	183.349215	1315.102212	-50.675454	141.110062	1228.760501	-59.736841	190.866451	1196.420385	 -6.469824	156.705324	1170.305252	-171.624706	167.267452	1129.631115	-146.422821	175.577793	1116.976433	-170.074208	165.222340	1157.559231	-195.017878	237.019593	1147.389251	-287.963435	205.890958	1080.073927	-259.726902	285.280931	1138.666362	-351.420049	219.336682	1077.734938	-375.330363	223.179752	1037.075964	-348.682919	314.661406	1295.013169	277.875388	275.124611	1490.916205	279.715692	158.610670	1533.897503	444.135821	197.285352	1527.704780	 77.967543	137.922988	1554.417446	275.982823	 93.389485	1362.613084	272.739680	278.160244	1032.522659	415.985641	291.468432	1024.904567	145.526026	 98.711910	1066.712511	323.269239	102.896365	1072.246469	203.071003	204.917521	950.602904	464.453504	185.240497	779.223707	470.624105	227.926565	776.479091	475.439938	225.900635	746.089819	474.911072	183.160959	747.563622	470.806901	193.738241	521.981975	440.176232	229.848300	496.062903	349.519091	206.965947	923.285510	 89.103476	239.783833	784.024774	 84.420869	197.447402	779.826273	 86.093340	200.465996	748.685126	 85.725427	243.003506	752.580326	 83.859594	220.859346	512.092533	128.381202	239.997119	493.584063	224.742104	223.719346	447.685497	402.132538	105.314950	422.749195	441.918746	144.765583	413.457816	457.414675	137.215439	383.840905	458.571059	 97.454973	393.255241	443.443371	109.223543	126.654132	427.053013	146.595977	131.584042	347.410768	238.137354	441.954461	175.961063	157.136506	423.641716	110.720933	117.196978	430.643457	127.363233	110.989460	401.263560	125.912896	149.835409	394.270093	108.240738	116.697069	121.350584	143.960211	156.269882	124.374658	218.416792	276.129124	 57.413570	391.324940	215.733423	 51.438688	488.351514	 62.233607	 68.764658	357.664687	155.892041	 61.167784	460.660810	301.609755	 52.665771	164.172098	242.086513	 49.940397	 63.164433	 81.252032	 64.658403	209.136786	169.065096	 64.108960	 99.338198	218.561530	961.757636	367.155341	227.345652	956.729285	188.637418	222.953591	959.243461	277.896380	192.809238	1049.096551	271.962977	284.814338	1028.713613	280.755833	100.804137	1069.479490	263.170121	201.198879	510.328167	394.847662	208.362516	492.722190	176.561653	127.909760	129.119087	387.231890	136.483475	122.862621	181.188502	276.129124	  0.000000	391.324940	301.609755	  0.000000	164.172098	215.733423	  0.000000	488.351514	242.086513	  0.000000	 63.164433	 62.233607	  0.000000	357.664687	 81.252032	  0.000000	209.136786	245.931273	  0.000000	439.838227	271.848134	  0.000000	113.668265	127.909760	  0.000000	387.231890	136.483475	  0.000000	181.188502	158.610670	1464.897503	444.135821	197.285352	1458.704780	 77.967543	143.019776	1223.405177	579.617986	165.988256	1212.590443	-33.103332	146.668193	1094.864972	807.287034	221.455276	1113.731589	-273.845169
131	  1.155556	344.881396	1788.150695	320.912504	156.290407	1756.138648	375.274655	239.420892	1756.293039	181.412903	105.169746	1693.791098	267.853741	217.148058	1857.549561	287.855747	108.357293	1327.282626	513.166103	115.249703	1349.961465	547.909971	114.222513	1326.639143	563.471679	107.207120	1303.033238	528.509962	106.340429	1236.576823	596.692791	179.730421	1210.264661	562.563767	107.858156	1139.102823	697.978374	144.043178	1114.727747	675.935286	148.354017	1100.465592	699.424950	112.053827	1124.158715	720.581866	163.590486	1126.190571	823.786979	129.802035	1063.614003	790.832558	178.457168	1125.142230	888.911468	115.036753	1058.467452	888.847721	124.581080	1023.075791	858.697318	186.268049	1339.822958	-36.889138	149.271763	1334.144456	-17.978419	146.902613	1309.874865	-30.909904	183.334498	1315.089872	-50.669537	141.091689	1228.748886	-59.726462	190.850481	1196.409064	 -6.461214	156.678993	1170.292247	-171.613142	167.243362	1129.617664	-146.411501	175.549935	1116.961470	-170.063296	165.194697	1157.546532	-195.006268	236.984863	1147.371110	-287.956122	205.857413	1080.056987	-259.717309	285.244610	1138.646367	-351.414987	219.298474	1077.714140	-375.321743	223.143919	1037.052063	-348.676115	314.656861	1295.002840	277.875504	275.127319	1490.906494	279.710941	158.610107	1533.923028	444.130078	197.287340	1527.695390	 77.965056	137.939024	1554.424966	275.981293	 93.390583	1362.621392	272.748265	278.151530	1032.523497	415.991151	291.458251	1024.906330	145.529909	 98.701547	1066.713762	323.277908	102.882932	1072.248357	203.079289	204.911086	950.603067	464.459122	185.237547	779.223797	470.629212	227.923884	776.479387	475.444478	225.898671	746.090534	474.914367	183.158201	747.563585	470.811549	193.737650	521.982738	440.179172	229.848862	496.064605	349.522571	206.952028	923.281474	 89.107538	239.773891	784.028470	 84.424341	197.436920	779.828900	 86.097335	200.456213	748.687659	 85.729459	242.994464	752.584121	 83.862252	220.859972	512.095085	128.383717	239.997298	493.586426	224.743692	223.718271	447.686581	402.135878	105.314709	422.748186	441.920941	144.765147	413.457008	457.417070	137.215305	383.840190	458.574213	 97.454813	393.254440	443.445851	109.223200	126.654020	427.054463	146.597006	131.584506	347.412067	238.138318	441.956610	175.964325	157.137723	423.643505	110.723058	117.198322	430.645417	127.365303	110.994234	401.263443	125.919515	149.836326	394.272192	108.242560	116.698938	121.351572	143.960551	156.271015	124.374737	218.417691	276.130273	 57.413993	391.325864	215.733382	 51.438327	488.352241	 62.233895	 68.765073	357.665036	155.891823	 61.167427	460.661735	301.611494	 52.665735	164.173467	242.087829	 49.940277	 63.164989	 81.251830	 64.656307	209.137202	169.066847	 64.108971	 99.339128	218.552025	961.758166	367.161316	227.335178	956.730425	188.642320	222.943601	959.244296	277.901818	192.798565	1049.097986	271.969564	284.804890	1028.714913	280.760530	100.792239	1069.481060	263.178599	201.198907	510.329006	394.850872	208.363651	492.720964	176.563705	127.910103	129.119263	387.233265	136.484976	122.863155	181.189121	276.130273	  0.000000	391.325864	301.611494	  0.000000	164.173467	215.733382	  0.000000	488.352241	242.087829	  0.000000	 63.164989	 62.233895	  0.000000	357.665036	 81.251830	  0.000000	209.137202	245.931827	  0.000000	439.839052	271.849662	  0.000000	113.669228	127.910103	  0.000000	387.233265	136.484976	  0.000000	181.189121	158.610107	1464.923028	444.130078	197.287340	1458.695390	 77.965056	143.035425	1223.420742	579.628279	165.971085	1212.578975	-33.093838	146.696261	1094.902287	807.309769	221.421138	1113.714049	-273.836715
